<?xml version="1.0" encoding="UTF-8" standalone="no"?>
<!-- Generator: Adobe Illustrator 19.0.0, SVG Export Plug-In . SVG Version: 6.00 Build 0)  -->

<svg
   xmlns:dc="http://purl.org/dc/elements/1.1/"
   xmlns:cc="http://creativecommons.org/ns#"
   xmlns:rdf="http://www.w3.org/1999/02/22-rdf-syntax-ns#"
   xmlns:svg="http://www.w3.org/2000/svg"
   xmlns="http://www.w3.org/2000/svg"
   xmlns:sodipodi="http://sodipodi.sourceforge.net/DTD/sodipodi-0.dtd"
   xmlns:inkscape="http://www.inkscape.org/namespaces/inkscape"
   version="1.1"
   id="Capa_1"
   x="0px"
   y="0px"
   viewBox="0 0 16 16"
   xml:space="preserve"
   sodipodi:docname="error.svg"
   width="16"
   height="16"
   inkscape:version="0.92.3 (2405546, 2018-03-11)"><metadata
   id="metadata43"><rdf:RDF><cc:Work
       rdf:about=""><dc:format>image/svg+xml</dc:format><dc:type
         rdf:resource="http://purl.org/dc/dcmitype/StillImage" /><dc:title></dc:title></cc:Work></rdf:RDF></metadata><defs
   id="defs41" /><sodipodi:namedview
   pagecolor="#ffffff"
   bordercolor="#666666"
   borderopacity="1"
   objecttolerance="10"
   gridtolerance="10"
   guidetolerance="10"
   inkscape:pageopacity="0"
   inkscape:pageshadow="2"
   inkscape:window-width="1920"
   inkscape:window-height="1017"
   id="namedview39"
   showgrid="false"
   inkscape:zoom="16.593754"
   inkscape:cx="33.336622"
   inkscape:cy="22.2975"
   inkscape:window-x="-8"
   inkscape:window-y="-8"
   inkscape:window-maximized="1"
   inkscape:current-layer="Capa_1" />
<circle
   style="fill:#e24c4b;stroke-width:0.03515618"
   cx="8"
   cy="8"
   id="circle2"
   r="8" />
<path
   style="fill:#d1403f;stroke-width:0.03515618"
   d="m 15.999976,7.9999996 c 0,4.4000064 -3.599992,7.9999994 -8.0000111,7.9999994 -2.5499837,0 -4.7999784,-1.149993 -6.2499951,-2.999983 1.3499969,1.100002 3.100001,1.750005 4.9999818,1.750005 4.4000154,0 8.0000114,-3.599993 8.0000114,-7.9999995 0,-1.8999805 -0.650002,-3.649985 -1.750004,-4.9999824 1.850024,1.4499464 3.000017,3.6999419 3.000017,6.2499605 z"
   id="path4"
   inkscape:connector-curvature="0" />
<path
   style="fill:#ffffff;stroke-width:0.03515618"
   d="m 11.649996,11.649984 c -0.29999,0.299988 -0.80002,0.299988 -1.10001,0 L 8.0000006,9.1000014 5.4500169,11.649984 c -0.2999879,0.299988 -0.8000142,0.299988 -1.1000021,0 -0.2999868,-0.299988 -0.2999868,-0.800015 0,-1.100001 L 6.8999984,7.9999996 4.3500148,5.4500162 c -0.2999868,-0.2999877 -0.2999868,-0.8000141 0,-1.1000018 0.2999879,-0.2999875 0.8000142,-0.2999875 1.1000021,0 L 8.0000006,6.8999978 10.549986,4.3500144 c 0.29999,-0.2999875 0.80002,-0.2999875 1.10001,0 0.299988,0.2999877 0.299988,0.8000141 0,1.1000018 L 9.1000017,7.9999996 11.649996,10.549983 c 0.299988,0.299986 0.299988,0.799979 0,1.100001 z"
   id="path6"
   inkscape:connector-curvature="0" />
<g
   id="g8"
   transform="translate(0,-439.11099)">
</g>
<g
   id="g10"
   transform="translate(0,-439.11099)">
</g>
<g
   id="g12"
   transform="translate(0,-439.11099)">
</g>
<g
   id="g14"
   transform="translate(0,-439.11099)">
</g>
<g
   id="g16"
   transform="translate(0,-439.11099)">
</g>
<g
   id="g18"
   transform="translate(0,-439.11099)">
</g>
<g
   id="g20"
   transform="translate(0,-439.11099)">
</g>
<g
   id="g22"
   transform="translate(0,-439.11099)">
</g>
<g
   id="g24"
   transform="translate(0,-439.11099)">
</g>
<g
   id="g26"
   transform="translate(0,-439.11099)">
</g>
<g
   id="g28"
   transform="translate(0,-439.11099)">
</g>
<g
   id="g30"
   transform="translate(0,-439.11099)">
</g>
<g
   id="g32"
   transform="translate(0,-439.11099)">
</g>
<g
   id="g34"
   transform="translate(0,-439.11099)">
</g>
<g
   id="g36"
   transform="translate(0,-439.11099)">
</g>
</svg>