<?xml version="1.0" encoding="UTF-8" standalone="no"?>
<!-- Generator: Adobe Illustrator 18.0.0, SVG Export Plug-In . SVG Version: 6.00 Build 0)  -->

<svg
   xmlns:dc="http://purl.org/dc/elements/1.1/"
   xmlns:cc="http://creativecommons.org/ns#"
   xmlns:rdf="http://www.w3.org/1999/02/22-rdf-syntax-ns#"
   xmlns:svg="http://www.w3.org/2000/svg"
   xmlns="http://www.w3.org/2000/svg"
   xmlns:sodipodi="http://sodipodi.sourceforge.net/DTD/sodipodi-0.dtd"
   xmlns:inkscape="http://www.inkscape.org/namespaces/inkscape"
   version="1.1"
   id="Capa_1"
   x="0px"
   y="0px"
   viewBox="0 0 16 16"
   xml:space="preserve"
   sodipodi:docname="wait.svg"
   width="16"
   height="16"
   inkscape:version="0.92.3 (2405546, 2018-03-11)"><metadata
   id="metadata79"><rdf:RDF><cc:Work
       rdf:about=""><dc:format>image/svg+xml</dc:format><dc:type
         rdf:resource="http://purl.org/dc/dcmitype/StillImage" /><dc:title></dc:title></cc:Work></rdf:RDF></metadata><defs
   id="defs77" /><sodipodi:namedview
   pagecolor="#ffffff"
   bordercolor="#666666"
   borderopacity="1"
   objecttolerance="10"
   gridtolerance="10"
   guidetolerance="10"
   inkscape:pageopacity="0"
   inkscape:pageshadow="2"
   inkscape:window-width="1920"
   inkscape:window-height="1017"
   id="namedview75"
   showgrid="false"
   inkscape:zoom="32.334304"
   inkscape:cx="10.491296"
   inkscape:cy="12.160971"
   inkscape:window-x="-8"
   inkscape:window-y="-8"
   inkscape:window-maximized="1"
   inkscape:current-layer="Capa_1" />
<g
   id="g42"
   transform="matrix(0.27401952,0,0,0.27401724,0,0.05356672)">
	<g
   id="g30">
		<circle
   style="fill:#ecf0f1"
   cx="29"
   cy="29.195"
   r="29"
   id="circle2" />
		<path
   style="fill:#545e73"
   d="m 29,4.195 c 13.785,0 25,11.215 25,25 0,13.785 -11.215,25 -25,25 -13.785,0 -25,-11.215 -25,-25 0,-13.785 11.215,-25 25,-25 m 0,-4 c -16.016,0 -29,12.984 -29,29 0,16.016 12.984,29 29,29 16.016,0 29,-12.984 29,-29 0,-16.016 -12.984,-29 -29,-29 z"
   id="path4"
   inkscape:connector-curvature="0" />
		<g
   id="g22">
			<path
   style="fill:#8697cb"
   d="m 29,6.073 c -0.552,0 -1,0.447 -1,1 v 1 c 0,0.553 0.448,1 1,1 0.552,0 1,-0.447 1,-1 v -1 c 0,-0.552 -0.448,-1 -1,-1 z"
   id="path6"
   inkscape:connector-curvature="0" />
			<path
   style="fill:#8697cb"
   d="m 29,49.073 c -0.552,0 -1,0.447 -1,1 v 1 c 0,0.553 0.448,1 1,1 0.552,0 1,-0.447 1,-1 v -1 c 0,-0.552 -0.448,-1 -1,-1 z"
   id="path8"
   inkscape:connector-curvature="0" />
			<path
   style="fill:#8697cb"
   d="m 51,28.073 h -1 c -0.552,0 -1,0.447 -1,1 0,0.553 0.448,1 1,1 h 1 c 0.552,0 1,-0.447 1,-1 0,-0.553 -0.448,-1 -1,-1 z"
   id="path10"
   inkscape:connector-curvature="0" />
			<path
   style="fill:#8697cb"
   d="M 8,28.073 H 7 c -0.552,0 -1,0.447 -1,1 0,0.553 0.448,1 1,1 h 1 c 0.552,0 1,-0.447 1,-1 0,-0.553 -0.448,-1 -1,-1 z"
   id="path12"
   inkscape:connector-curvature="0" />
			<path
   style="fill:#8697cb"
   d="m 43.849,12.81 -0.707,0.707 c -0.391,0.391 -0.391,1.023 0,1.414 0.195,0.195 0.451,0.293 0.707,0.293 0.256,0 0.512,-0.098 0.707,-0.293 l 0.707,-0.707 c 0.391,-0.391 0.391,-1.023 0,-1.414 -0.391,-0.391 -1.023,-0.391 -1.414,0 z"
   id="path14"
   inkscape:connector-curvature="0" />
			<path
   style="fill:#8697cb"
   d="m 13.444,43.216 -0.707,0.707 c -0.391,0.391 -0.391,1.023 0,1.414 0.195,0.195 0.451,0.293 0.707,0.293 0.256,0 0.512,-0.098 0.707,-0.293 l 0.707,-0.707 c 0.391,-0.391 0.391,-1.023 0,-1.414 -0.391,-0.391 -1.024,-0.391 -1.414,0 z"
   id="path16"
   inkscape:connector-curvature="0" />
			<path
   style="fill:#8697cb"
   d="m 44.556,43.216 c -0.391,-0.391 -1.023,-0.391 -1.414,0 -0.391,0.391 -0.391,1.023 0,1.414 l 0.707,0.707 c 0.195,0.195 0.451,0.293 0.707,0.293 0.256,0 0.512,-0.098 0.707,-0.293 0.391,-0.391 0.391,-1.023 0,-1.414 z"
   id="path18"
   inkscape:connector-curvature="0" />
			<path
   style="fill:#8697cb"
   d="m 14.151,12.81 c -0.391,-0.391 -1.023,-0.391 -1.414,0 -0.391,0.391 -0.391,1.023 0,1.414 l 0.707,0.707 c 0.195,0.195 0.451,0.293 0.707,0.293 0.256,0 0.512,-0.098 0.707,-0.293 0.391,-0.391 0.391,-1.023 0,-1.414 z"
   id="path20"
   inkscape:connector-curvature="0" />
		</g>
		<path
   style="fill:#545e73"
   d="m 26,30.074 h -8 c -0.553,0 -1,-0.447 -1,-1 0,-0.553 0.447,-1 1,-1 h 8 c 0.553,0 1,0.447 1,1 0,0.553 -0.447,1 -1,1 z"
   id="path24"
   inkscape:connector-curvature="0" />
		<path
   style="fill:#545e73"
   d="m 29,27.074 c -0.553,0 -1,-0.447 -1,-1 v -11 c 0,-0.553 0.447,-1 1,-1 0.553,0 1,0.447 1,1 v 11 c 0,0.552 -0.447,1 -1,1 z"
   id="path26"
   inkscape:connector-curvature="0" />
		<path
   style="fill:#545e73"
   d="m 29,33.074 c -2.206,0 -4,-1.794 -4,-4 0,-2.206 1.794,-4 4,-4 2.206,0 4,1.794 4,4 0,2.206 -1.794,4 -4,4 z m 0,-6 c -1.103,0 -2,0.897 -2,2 0,1.103 0.897,2 2,2 1.103,0 2,-0.897 2,-2 0,-1.103 -0.897,-2 -2,-2 z"
   id="path28"
   inkscape:connector-curvature="0" />
	</g>
	<g
   id="g40">
		<path
   style="fill:#bdc3c7"
   d="m 58.39,45.041 -1.444,-0.278 c -2.143,-0.412 -3.125,-2.916 -1.835,-4.675 l 0.907,-1.236 -1.958,-1.958 -1.217,0.825 c -1.806,1.224 -4.272,0.148 -4.604,-2.008 l -0.233,-1.515 h -2.769 l -0.359,1.865 c -0.403,2.096 -2.818,3.096 -4.585,1.899 l -1.572,-1.065 -1.958,1.958 0.907,1.236 c 1.29,1.76 0.308,4.263 -1.835,4.675 l -1.444,0.278 v 2.769 l 1.515,0.233 c 2.157,0.332 3.232,2.797 2.008,4.604 l -0.825,1.217 1.958,1.958 1.236,-0.907 c 1.76,-1.29 4.263,-0.308 4.675,1.835 l 0.278,1.444 h 2.769 l 0.164,-1.066 c 0.339,-2.204 2.896,-3.263 4.694,-1.944 l 0.869,0.638 1.958,-1.958 -0.825,-1.217 c -1.224,-1.806 -0.148,-4.272 2.008,-4.604 l 1.515,-0.233 v -2.77 z"
   id="path32"
   inkscape:connector-curvature="0" />
		<g
   id="g38">
			<circle
   style="fill:#ffffff"
   cx="46.389999"
   cy="46.195"
   r="4"
   id="circle34" />
			<path
   style="fill:#ecf0f1"
   d="m 46.39,51.195 c -2.757,0 -5,-2.243 -5,-5 0,-2.757 2.243,-5 5,-5 2.757,0 5,2.243 5,5 0,2.757 -2.244,5 -5,5 z m 0,-8 c -1.654,0 -3,1.346 -3,3 0,1.654 1.346,3 3,3 1.654,0 3,-1.346 3,-3 0,-1.654 -1.346,-3 -3,-3 z"
   id="path36"
   inkscape:connector-curvature="0" />
		</g>
	</g>
</g>
<g
   id="g44"
   transform="translate(0,-42.389999)">
</g>
<g
   id="g46"
   transform="translate(0,-42.389999)">
</g>
<g
   id="g48"
   transform="translate(0,-42.389999)">
</g>
<g
   id="g50"
   transform="translate(0,-42.389999)">
</g>
<g
   id="g52"
   transform="translate(0,-42.389999)">
</g>
<g
   id="g54"
   transform="translate(0,-42.389999)">
</g>
<g
   id="g56"
   transform="translate(0,-42.389999)">
</g>
<g
   id="g58"
   transform="translate(0,-42.389999)">
</g>
<g
   id="g60"
   transform="translate(0,-42.389999)">
</g>
<g
   id="g62"
   transform="translate(0,-42.389999)">
</g>
<g
   id="g64"
   transform="translate(0,-42.389999)">
</g>
<g
   id="g66"
   transform="translate(0,-42.389999)">
</g>
<g
   id="g68"
   transform="translate(0,-42.389999)">
</g>
<g
   id="g70"
   transform="translate(0,-42.389999)">
</g>
<g
   id="g72"
   transform="translate(0,-42.389999)">
</g>
</svg>